<?xml version="1.0" encoding="UTF-8"?>
<svg id="Capa_1" data-name="Capa 1" xmlns="http://www.w3.org/2000/svg" viewBox="0 0 287.75 93.98">
  <defs>
    <style>
      .cls-1 {
        fill: #1c5ef5;
      }
    </style>
  </defs>
  <g>
    <path class="cls-1" d="m54.54,34.35c-.71-4.13-2.43-10.39-3.16-12.94-1.22-4.25-1.99-10.05-8.98-8.56l-9.89,3.24c-2.87,1.02-5.48,2.59-7.67,4.57l4.42,1.9c2.15.92,3.14,3.42,2.22,5.56l-2.78,6.47c-.92,2.15-3.42,3.14-5.56,2.22l-5.16-2.22c0,.12-.03.23-.03.35l-.47,8.38-.04,5.1s0,0,0,.01c.04,2.19,1.67,4.03,3.84,4.34l11.84,1.73c4.58.6,7.65,1.23,8.95-2.41l.45-1.48c.09-.28.42-1.52.45-1.81.6-6.29.85-6.71,7.18-8.91l1.57-.59c2.01-.76,3.21-2.83,2.84-4.95Z"/>
    <path class="cls-1" d="m24.84,20.66l-5.7-2.45c-2.15-.92-4.64.07-5.56,2.22l-2.78,6.47c-.92,2.15.07,4.64,2.22,5.56l4.95,2.13c.35-5.51,2.94-10.38,6.88-13.93Z"/>
  </g>
  <g>
    <path d="m50.6,45.65h8.02v36.17h-10.86v-33.34c0-1.57,1.27-2.83,2.83-2.83Z"/>
    <path d="m67.38,45.65h10.93v5.7c2.17-2.85,6.18-6.45,12.49-6.45s10.52,3.05,10.52,10.52v26.4h-10.86v-22.94c0-3.26-1.22-4.95-4.28-4.95s-5.43,1.49-7.87,3.6v24.3h-10.93v-36.17Z"/>
    <path d="m112.18,71.64v-18.05h-6.04v-7.94h6.04v-9.59c0-1.57,1.27-2.83,2.83-2.83h8.02v12.42h9.3v7.94h-9.3v15.68c0,3.87,1.09,5.09,5.02,5.09,1.22,0,2.85-.14,3.6-.41v7.8c-.81.2-4.82.54-7.19.54-10.72,0-12.28-3.87-12.28-10.65Z"/>
    <path d="m138.24,45.65h10.93v6.04h.07c1.97-3.05,5.43-6.79,12.22-6.79h.34l-.14,9.71c-.41-.07-2.17-.2-2.85-.2-4.34,0-7.6,2.31-9.64,4.95v22.46h-10.93v-36.17Z"/>
    <path d="m163.49,72.59c0-8.35,7.06-12.96,22.94-14.25v-.88c0-2.65-1.36-4.34-4.89-4.34-4.62,0-8.55,1.9-11.88,4.48l-4.61-6.24c3.6-3.26,9.03-6.45,18.05-6.45,9.91,0,13.98,4.89,13.98,14.18v13.91c0,4.34.27,6.99,1.02,8.82h-10.86c-.48-1.49-.81-3.26-.81-5.29-3.33,3.73-7.26,5.84-12.62,5.84s-10.32-3.6-10.32-9.77Zm22.94-1.56v-6.72c-8.62.88-12.28,3.05-12.28,6.38,0,2.31,1.63,3.46,4,3.46,3.8,0,6.45-1.29,8.28-3.12Z"/>
    <path d="m203.06,63.77c0-14.46,10.25-18.87,18.26-18.87,9.84,0,13.64,5.23,15.75,11.06l-9.16,3.05c-1.43-4.61-3.53-6.11-6.72-6.11-4.41,0-7.19,3.73-7.19,10.93,0,6.45,2.04,11.06,7.06,11.06,2.92,0,5.57-1.56,7.13-6.45l9.03,3.12c-2.31,5.63-6.79,10.99-16.36,10.99-8.48,0-17.78-4.75-17.78-18.8Z"/>
    <path d="m245.53,31.6h8.09v27.55l11.27-13.51h11.74l-11.81,13.51,12.49,22.67h-11.27l-8.01-14.73-4.41,4.95v9.77h-10.93v-47.39c0-1.57,1.27-2.83,2.83-2.83Z"/>
  </g>
</svg>