<svg xmlns="http://www.w3.org/2000/svg" version="1.1" width="3300" height="2000"><g id="Notes"><style>
    text {
      font-family: monospace;
      text-anchor: middle;
    }
    text.emphasis {
      font-weight:bold;
    }
    text.lanchor {
      text-anchor: start;
    }
  </style><rect height="2200" id="artboard" fill="white" width="3300" x="0" y="0"/><line id="" style="fill:none;stroke:black;stroke-width:0.5;" x1="263" x2="3036" y1="292" y2="292"/><text class="lanchor emphasis" transform="matrix(1 0 0 1 263 322)">Weight/Scale Variations</text><text transform="matrix(1 0 0 1 559.711 322)">Ultralight</text><text transform="matrix(1 0 0 1 856.422 322)">Thin</text><text transform="matrix(1 0 0 1 1153.13 322)">Light</text><text transform="matrix(1 0 0 1 1449.84 322)">Regular</text><text transform="matrix(1 0 0 1 1746.56 322)">Medium</text><text transform="matrix(1 0 0 1 2043.27 322)">Semibold</text><text transform="matrix(1 0 0 1 2339.98 322)">Bold</text><text transform="matrix(1 0 0 1 2636.69 322)">Heavy</text><text transform="matrix(1 0 0 1 2933.4 322)">Black</text><text id="template-version" style="text-anchor: end;" transform="matrix(1 0 0 1 3036 1933)">Template v.1.0</text><text class="lanchor" transform="matrix(1 0 0 1 263 726)">Small</text><text class="lanchor" transform="matrix(1 0 0 1 263 1156)">Medium</text><text class="lanchor" transform="matrix(1 0 0 1 263 1586)">Large</text></g><g id="Guides"><g id="H-reference" style="fill:#27AAE1;stroke:none;" transform="matrix(1 0 0 1 339 696)"><path d="M 54.9316 0 L 57.666 0 L 30.5664 -70.459 L 28.0762 -70.459 L 0.976562 0 L 3.66211 0 L 12.9395 -24.4629 L 45.7031 -24.4629 Z M 29.1992 -67.0898 L 29.4434 -67.0898 L 44.8242 -26.709 L 13.8184 -26.709 Z"/></g><line id="Baseline-S" style="fill:none;stroke:#27AAE1;opacity:1;stroke-width:0.577;" x1="263" x2="3036" y1="696" y2="696"/><line id="Capline-S" style="fill:none;stroke:#27AAE1;opacity:1;stroke-width:0.577;" x1="263" x2="3036" y1="625.541" y2="625.541"/><g id="H-reference" style="fill:#27AAE1;stroke:none;" transform="matrix(1 0 0 1 339 1126)"><path d="M 54.9316 0 L 57.666 0 L 30.5664 -70.459 L 28.0762 -70.459 L 0.976562 0 L 3.66211 0 L 12.9395 -24.4629 L 45.7031 -24.4629 Z M 29.1992 -67.0898 L 29.4434 -67.0898 L 44.8242 -26.709 L 13.8184 -26.709 Z"/></g><line id="Baseline-M" style="fill:none;stroke:#27AAE1;opacity:1;stroke-width:0.577;" x1="263" x2="3036" y1="1126" y2="1126"/><line id="Capline-M" style="fill:none;stroke:#27AAE1;opacity:1;stroke-width:0.577;" x1="263" x2="3036" y1="1055.54" y2="1055.54"/><g id="H-reference" style="fill:#27AAE1;stroke:none;" transform="matrix(1 0 0 1 339 1556)"><path d="M 54.9316 0 L 57.666 0 L 30.5664 -70.459 L 28.0762 -70.459 L 0.976562 0 L 3.66211 0 L 12.9395 -24.4629 L 45.7031 -24.4629 Z M 29.1992 -67.0898 L 29.4434 -67.0898 L 44.8242 -26.709 L 13.8184 -26.709 Z"/></g><line id="Baseline-L" style="fill:none;stroke:#27AAE1;opacity:1;stroke-width:0.577;" x1="263" x2="3036" y1="1556" y2="1556"/><line id="Capline-L" style="fill:none;stroke:#27AAE1;opacity:1;stroke-width:0.577;" x1="263" x2="3036" y1="1485.54" y2="1485.54"/><rect height="119.336" id="left-margin" style="fill:darkred;stroke:none;opacity:0.4;" width="12.4512" x="1394.06" y="1030.79"/><rect height="119.336" id="right-margin" style="fill:darkgreen;stroke:none;opacity:0.4;" width="12.4512" x="1502.5112" y="1030.79"/><rect x="1406.5112" y="1045" width="96" height="96" fill="none" stroke="blue" stroke-dasharray="5"/><rect x="1394.06" y="1030.79" width="120.9024" height="119.336" fill="none" stroke="blue"/></g><g id="Symbols"><g id="Bold-L" transform="matrix(1 0 0 1 2266 1556)"><path d="M77.4 -25.071 Q66.596 -25.071 57.808 -19.024 Q49.02 -12.977 44.828 -2.98 H109.972 Q105.941 -13.139 97.073 -19.105 Q88.204 -25.071 77.4 -25.071 Z M47.891 -36.681  55.954 -43.937  63.21 -36.681  68.209 -42.486  60.953 -49.742  68.209 -56.999  63.21 -62.804  55.954 -55.547  47.891 -62.804  42.892 -56.999  50.149 -49.742  42.892 -42.486  47.891 -36.681 Z M91.751 -36.681  98.846 -43.937  107.07 -36.681  112.069 -42.486  104.812 -49.742  112.069 -56.999  107.07 -62.804  98.846 -55.547  91.751 -62.804  86.752 -56.999  93.847 -49.742  86.752 -42.486  91.751 -36.681 Z M77.409 33.301 Q63.21 33.301 50.713 27.98 Q38.216 22.659 28.864 13.306 Q19.511 3.954 14.19 -8.534 Q8.869 -21.022 8.869 -35.221 Q8.869 -49.42 14.19 -61.917 Q19.511 -74.414 28.838 -83.775 Q38.166 -93.136 50.666 -98.529 Q63.165 -103.922 77.378 -103.922 Q91.59 -103.922 104.106 -98.542 Q116.622 -93.161 125.971 -83.821 Q135.32 -74.481 140.706 -61.965 Q146.093 -49.448 146.093 -35.217 Q146.093 -20.995 140.699 -8.501 Q135.306 3.993 125.945 13.326 Q116.584 22.659 104.096 27.98 Q91.608 33.301 77.409 33.301 Z"/></g><g id="Semibold-L" transform="matrix(1 0 0 1 1970.27 1556)"><path d="M77.4 -25.071 Q66.596 -25.071 57.808 -19.024 Q49.02 -12.977 44.828 -2.98 H109.972 Q105.941 -13.139 97.073 -19.105 Q88.204 -25.071 77.4 -25.071 Z M47.891 -36.681  55.954 -43.937  63.21 -36.681  68.209 -42.486  60.953 -49.742  68.209 -56.999  63.21 -62.804  55.954 -55.547  47.891 -62.804  42.892 -56.999  50.149 -49.742  42.892 -42.486  47.891 -36.681 Z M91.751 -36.681  98.846 -43.937  107.07 -36.681  112.069 -42.486  104.812 -49.742  112.069 -56.999  107.07 -62.804  98.846 -55.547  91.751 -62.804  86.752 -56.999  93.847 -49.742  86.752 -42.486  91.751 -36.681 Z M77.405 31.549 Q63.561 31.549 51.379 26.333 Q39.198 21.116 30.126 12.044 Q21.054 2.972 15.837 -9.204 Q10.621 -21.381 10.621 -35.225 Q10.621 -49.069 15.837 -61.251 Q21.054 -73.432 30.111 -82.509 Q39.169 -91.586 51.352 -96.843 Q63.535 -102.1 77.387 -102.1 Q91.239 -102.1 103.432 -96.85 Q115.624 -91.6 124.694 -82.535 Q133.764 -73.471 139.017 -61.278 Q144.27 -49.085 144.27 -35.222 Q144.27 -21.365 139.013 -9.185 Q133.756 2.994 124.679 12.055 Q115.602 21.116 103.426 26.333 Q91.249 31.549 77.405 31.549 Z"/></g><g id="Medium-L" transform="matrix(1 0 0 1 1674.31 1556)"><path d="M77.4 -25.071 Q66.596 -25.071 57.808 -19.024 Q49.02 -12.977 44.828 -2.98 H109.972 Q105.941 -13.139 97.073 -19.105 Q88.204 -25.071 77.4 -25.071 Z M47.891 -36.681  55.954 -43.937  63.21 -36.681  68.209 -42.486  60.953 -49.742  68.209 -56.999  63.21 -62.804  55.954 -55.547  47.891 -62.804  42.892 -56.999  50.149 -49.742  42.892 -42.486  47.891 -36.681 Z M91.751 -36.681  98.846 -43.937  107.07 -36.681  112.069 -42.486  104.812 -49.742  112.069 -56.999  107.07 -62.804  98.846 -55.547  91.751 -62.804  86.752 -56.999  93.847 -49.742  86.752 -42.486  91.751 -36.681 Z M77.402 30.234 Q63.823 30.234 51.879 25.097 Q39.934 19.96 31.072 11.098 Q22.21 2.236 17.073 -9.707 Q11.936 -21.649 11.936 -35.228 Q11.936 -48.807 17.073 -60.751 Q22.21 -72.696 31.066 -81.56 Q39.922 -90.424 51.867 -95.578 Q63.813 -100.733 77.395 -100.733 Q90.977 -100.733 102.926 -95.581 Q114.875 -90.43 123.736 -81.571 Q132.597 -72.712 137.75 -60.763 Q142.903 -48.813 142.903 -35.227 Q142.903 -21.643 137.748 -9.699 Q132.594 2.245 123.73 11.103 Q114.866 19.96 102.923 25.097 Q90.981 30.234 77.402 30.234 Z"/></g><g id="Regular-L" transform="matrix(1 0 0 1 1378.56 1556)"><path d="M77.4 -25.071 Q66.596 -25.071 57.808 -19.024 Q49.02 -12.977 44.828 -2.98 H109.972 Q105.941 -13.139 97.073 -19.105 Q88.204 -25.071 77.4 -25.071 Z M47.891 -36.681  55.954 -43.937  63.21 -36.681  68.209 -42.486  60.953 -49.742  68.209 -56.999  63.21 -62.804  55.954 -55.547  47.891 -62.804  42.892 -56.999  50.149 -49.742  42.892 -42.486  47.891 -36.681 Z M91.751 -36.681  98.846 -43.937  107.07 -36.681  112.069 -42.486  104.812 -49.742  112.069 -56.999  107.07 -62.804  98.846 -55.547  91.751 -62.804  86.752 -56.999  93.847 -49.742  86.752 -42.486  91.751 -36.681 Z M77.4 29.27 Q64.016 29.27 52.245 24.191 Q40.474 19.111 31.766 10.404 Q23.059 1.696 17.979 -10.075 Q12.9 -21.846 12.9 -35.23 Q12.9 -48.614 17.979 -60.385 Q23.059 -72.156 31.766 -80.864 Q40.474 -89.571 52.245 -94.651 Q64.016 -99.73 77.4 -99.73 Q90.784 -99.73 102.555 -94.651 Q114.326 -89.571 123.034 -80.864 Q131.741 -72.156 136.821 -60.385 Q141.9 -48.614 141.9 -35.23 Q141.9 -21.846 136.821 -10.075 Q131.741 1.696 123.034 10.404 Q114.326 19.111 102.555 24.191 Q90.784 29.27 77.4 29.27 Z"/></g><g id="Light-L" transform="matrix(1 0 0 1 1082.77 1556)"><path d="M77.4 -25.195 Q67.403 -25.195 59.173 -19.676 Q50.943 -14.156 46.874 -4.965 H107.926 Q103.956 -14.255 95.677 -19.725 Q87.398 -25.195 77.4 -25.195 Z M48.325 -37.674  56.078 -44.806  63.21 -37.674  67.34 -42.362  60.208 -49.494  67.34 -56.689  63.21 -61.377  56.078 -54.245  48.325 -61.377  44.195 -56.689  51.327 -49.494  44.195 -42.362  48.325 -37.674 Z M91.689 -37.674  98.722 -44.806  106.636 -37.674  110.766 -42.362  103.634 -49.494  110.766 -56.689  106.636 -61.377  98.722 -54.245  91.689 -61.377  87.559 -56.689  94.592 -49.494  87.559 -42.362  91.689 -37.674 Z M77.411 26.045 Q64.698 26.045 53.513 21.22 Q42.327 16.396 34.053 8.125 Q25.779 -0.146 20.952 -11.326 Q16.125 -22.507 16.125 -35.219 Q16.125 -47.932 20.95 -59.117 Q25.774 -70.303 34.045 -78.577 Q42.316 -86.851 53.496 -91.678 Q64.677 -96.505 77.389 -96.505 Q90.102 -96.505 101.287 -91.68 Q112.473 -86.856 120.747 -78.585 Q129.021 -70.314 133.848 -59.134 Q138.675 -47.953 138.675 -35.241 Q138.675 -22.528 133.85 -11.343 Q129.026 -0.157 120.755 8.117 Q112.484 16.391 101.304 21.218 Q90.123 26.045 77.411 26.045 Z"/></g><g id="Thin-L" transform="matrix(1 0 0 1 787.282 1556)"><path d="M77.4 -25.319 Q68.209 -25.319 60.537 -20.327 Q52.865 -15.334 48.921 -6.949 H105.879 Q101.972 -15.371 94.282 -20.345 Q86.591 -25.319 77.4 -25.319 Z M48.76 -38.666  56.202 -45.674  63.21 -38.666  66.472 -42.238  59.464 -49.246  66.472 -56.379  63.21 -59.951  56.202 -52.943  48.76 -59.951  45.497 -56.379  52.505 -49.246  45.497 -42.238  48.76 -38.666 Z M91.627 -38.666  98.598 -45.674  106.202 -38.666  109.464 -42.238  102.456 -49.246  109.464 -56.379  106.202 -59.951  98.598 -52.943  91.627 -59.951  88.365 -56.379  95.336 -49.246  88.365 -42.238  91.627 -38.666 Z M77.422 22.82 Q65.381 22.82 54.78 18.25 Q44.18 13.681 36.339 5.847 Q28.498 -1.987 23.924 -12.577 Q19.35 -23.168 19.35 -35.208 Q19.35 -47.249 23.92 -57.85 Q28.489 -68.45 36.323 -76.291 Q44.157 -84.132 54.747 -88.706 Q65.338 -93.28 77.378 -93.28 Q89.419 -93.28 100.02 -88.71 Q110.62 -84.141 118.461 -76.307 Q126.302 -68.473 130.876 -57.883 Q135.45 -47.292 135.45 -35.252 Q135.45 -23.211 130.88 -12.61 Q126.311 -2.01 118.477 5.831 Q110.643 13.672 100.053 18.246 Q89.462 22.82 77.422 22.82 Z"/></g><g id="Ultralight-L" transform="matrix(1 0 0 1 491.205 1556)"><path d="M77.4 -25.394 Q68.692 -25.394 61.356 -20.717 Q54.019 -16.041 50.149 -8.14 H104.651 Q100.781 -16.041 93.444 -20.717 Q86.108 -25.394 77.4 -25.394 Z M49.02 -39.261  56.276 -46.195  63.21 -39.261  65.951 -42.164  59.017 -49.097  65.951 -56.192  63.21 -59.095  56.276 -52.161  49.02 -59.095  46.279 -56.192  53.212 -49.097  46.279 -42.164  49.02 -39.261 Z M91.59 -39.261  98.524 -46.195  105.941 -39.261  108.683 -42.164  101.749 -49.097  108.683 -56.192  105.941 -59.095  98.524 -52.161  91.59 -59.095  88.849 -56.192  95.782 -49.097  88.849 -42.164  91.59 -39.261 Z M77.428 20.885 Q65.79 20.885 55.541 16.468 Q45.292 12.051 37.711 4.48 Q30.13 -3.092 25.707 -13.328 Q21.285 -23.564 21.285 -35.202 Q21.285 -46.84 25.702 -57.089 Q30.119 -67.338 37.69 -74.919 Q45.262 -82.5 55.498 -86.923 Q65.734 -91.345 77.372 -91.345 Q89.01 -91.345 99.259 -86.928 Q109.508 -82.511 117.089 -74.94 Q124.67 -67.368 129.093 -57.132 Q133.515 -46.896 133.515 -35.258 Q133.515 -23.62 129.098 -13.371 Q124.681 -3.122 117.11 4.459 Q109.538 12.04 99.302 16.463 Q89.066 20.885 77.428 20.885 Z"/></g><g id="Bold-M" transform="matrix(1 0 0 1 2281.8 1126)"><path d="M60 -27.73 Q51.5 -27.73 44.562 -22.917 Q37.625 -18.105 34.5 -10.23 H85.5 Q82.375 -18.105 75.438 -22.917 Q68.5 -27.73 60 -27.73 Z M39 -35.23  44.5 -40.48  49.75 -35.23  55 -40.48  49.75 -45.73  55 -51.23  49.75 -56.48  44.5 -51.23  39 -56.48  33.75 -51.23  39 -45.73  33.75 -40.48  39 -35.23 Z M70.25 -35.23  75.5 -40.48  81 -35.23  86.25 -40.48  81 -45.73  86.25 -51.23  81 -56.48  75.5 -51.23  70.25 -56.48  65 -51.23  70.25 -45.73  65 -40.48  70.25 -35.23 Z M59.99 19.02 Q48.75 19.02 38.875 14.77 Q29 10.52 21.625 3.145 Q14.25 -4.23 10 -14.115 Q5.75 -24.001 5.75 -35.24 Q5.75 -46.48 10 -56.355 Q14.25 -66.23 21.625 -73.605 Q29 -80.98 38.885 -85.23 Q48.771 -89.48 60.01 -89.48 Q71.25 -89.48 81.125 -85.23 Q91 -80.98 98.375 -73.605 Q105.75 -66.23 110 -56.345 Q114.25 -46.459 114.25 -35.22 Q114.25 -23.98 110 -14.105 Q105.75 -4.23 98.375 3.145 Q91 10.52 81.115 14.77 Q71.229 19.02 59.99 19.02 Z"/></g><g id="Semibold-M" transform="matrix(1 0 0 1 1985.97 1126)"><path d="M60 -27.73 Q51.5 -27.73 44.562 -22.917 Q37.625 -18.105 34.5 -10.23 H85.5 Q82.375 -18.105 75.438 -22.917 Q68.5 -27.73 60 -27.73 Z M39 -35.23  44.5 -40.48  49.75 -35.23  55 -40.48  49.75 -45.73  55 -51.23  49.75 -56.48  44.5 -51.23  39 -56.48  33.75 -51.23  39 -45.73  33.75 -40.48  39 -35.23 Z M70.25 -35.23  75.5 -40.48  81 -35.23  86.25 -40.48  81 -45.73  86.25 -51.23  81 -56.48  75.5 -51.23  70.25 -56.48  65 -51.23  70.25 -45.73  65 -40.48  70.25 -35.23 Z M59.994 17.172 Q49.13 17.172 39.581 13.058 Q30.032 8.944 22.929 1.841 Q15.826 -5.262 11.712 -14.817 Q7.598 -24.372 7.598 -35.236 Q7.598 -46.1 11.712 -55.648 Q15.826 -65.197 22.929 -72.301 Q30.032 -79.404 39.587 -83.518 Q49.142 -87.632 60.006 -87.632 Q70.87 -87.632 80.418 -83.518 Q89.968 -79.404 97.071 -72.301 Q104.174 -65.197 108.288 -55.643 Q112.402 -46.088 112.402 -35.224 Q112.402 -24.36 108.288 -14.811 Q104.174 -5.262 97.071 1.841 Q89.968 8.944 80.413 13.058 Q70.858 17.172 59.994 17.172 Z"/></g><g id="Medium-M" transform="matrix(1 0 0 1 1689.91 1126)"><path d="M60 -27.73 Q51.5 -27.73 44.562 -22.917 Q37.625 -18.105 34.5 -10.23 H85.5 Q82.375 -18.105 75.438 -22.917 Q68.5 -27.73 60 -27.73 Z M39 -35.23  44.5 -40.48  49.75 -35.23  55 -40.48  49.75 -45.73  55 -51.23  49.75 -56.48  44.5 -51.23  39 -56.48  33.75 -51.23  39 -45.73  33.75 -40.48  39 -35.23 Z M70.25 -35.23  75.5 -40.48  81 -35.23  86.25 -40.48  81 -45.73  86.25 -51.23  81 -56.48  75.5 -51.23  70.25 -56.48  65 -51.23  70.25 -45.73  65 -40.48  70.25 -35.23 Z M59.998 15.786 Q49.416 15.786 40.111 11.774 Q30.807 7.762 23.908 0.862 Q17.008 -6.037 12.996 -15.344 Q8.984 -24.651 8.984 -35.232 Q8.984 -45.814 12.996 -55.119 Q17.008 -64.423 23.908 -71.322 Q30.807 -78.222 40.114 -82.234 Q49.421 -86.246 60.002 -86.246 Q70.584 -86.246 79.889 -82.234 Q89.193 -78.222 96.092 -71.322 Q102.992 -64.423 107.004 -55.116 Q111.016 -45.809 111.016 -35.227 Q111.016 -24.646 107.004 -15.341 Q102.992 -6.037 96.092 0.862 Q89.193 7.762 79.886 11.774 Q70.579 15.786 59.998 15.786 Z"/></g><g id="Regular-M" transform="matrix(1 0 0 1 1394.06 1126)"><path d="M60 -27.73 Q51.5 -27.73 44.562 -22.917 Q37.625 -18.105 34.5 -10.23 H85.5 Q82.375 -18.105 75.438 -22.917 Q68.5 -27.73 60 -27.73 Z M39 -35.23  44.5 -40.48  49.75 -35.23  55 -40.48  49.75 -45.73  55 -51.23  49.75 -56.48  44.5 -51.23  39 -56.48  33.75 -51.23  39 -45.73  33.75 -40.48  39 -35.23 Z M70.25 -35.23  75.5 -40.48  81 -35.23  86.25 -40.48  81 -45.73  86.25 -51.23  81 -56.48  75.5 -51.23  70.25 -56.48  65 -51.23  70.25 -45.73  65 -40.48  70.25 -35.23 Z M60 14.77 Q49.625 14.77 40.5 10.833 Q31.375 6.895 24.625 0.145 Q17.875 -6.605 13.938 -15.73 Q10 -24.855 10 -35.23 Q10 -45.605 13.938 -54.73 Q17.875 -63.855 24.625 -70.605 Q31.375 -77.355 40.5 -81.292 Q49.625 -85.23 60 -85.23 Q70.375 -85.23 79.5 -81.292 Q88.625 -77.355 95.375 -70.605 Q102.125 -63.855 106.062 -54.73 Q110 -45.605 110 -35.23 Q110 -24.855 106.062 -15.73 Q102.125 -6.605 95.375 0.145 Q88.625 6.895 79.5 10.833 Q70.375 14.77 60 14.77 Z"/></g><g id="Light-M" transform="matrix(1 0 0 1 1098.18 1126)"><path d="M60 -27.73 Q52.173 -27.73 45.692 -23.35 Q39.212 -18.97 36.135 -11.769 H83.865 Q80.788 -18.97 74.308 -23.35 Q67.827 -27.73 60 -27.73 Z M38.808 -36.288  44.308 -41.538  49.558 -36.288  53.75 -40.48  48.5 -45.73  53.75 -51.23  49.558 -55.422  44.308 -50.172  38.808 -55.422  34.615 -51.23  39.865 -45.73  34.615 -40.48  38.808 -36.288 Z M70.442 -36.288  75.692 -41.538  81.192 -36.288  85.385 -40.48  80.135 -45.73  85.385 -51.23  81.192 -55.422  75.692 -50.172  70.442 -55.422  66.25 -51.23  71.5 -45.73  66.25 -40.48  70.442 -36.288 Z M60.008 12.27 Q50.154 12.27 41.483 8.53 Q32.812 4.79 26.398 -1.621 Q19.983 -8.033 16.242 -16.7 Q12.5 -25.367 12.5 -35.222 Q12.5 -45.076 16.24 -53.747 Q19.98 -62.418 26.391 -68.832 Q32.803 -75.247 41.47 -78.988 Q50.137 -82.73 59.992 -82.73 Q69.846 -82.73 78.517 -78.99 Q87.188 -75.25 93.602 -68.839 Q100.017 -62.427 103.758 -53.76 Q107.5 -45.093 107.5 -35.238 Q107.5 -25.384 103.76 -16.713 Q100.02 -8.042 93.609 -1.628 Q87.197 4.787 78.53 8.528 Q69.863 12.27 60.008 12.27 Z"/></g><g id="Thin-M" transform="matrix(1 0 0 1 802.565 1126)"><path d="M60 -27.73 Q52.846 -27.73 46.822 -23.783 Q40.798 -19.836 37.769 -13.307 H82.231 Q79.202 -19.836 73.178 -23.783 Q67.154 -27.73 60 -27.73 Z M38.615 -37.345  44.115 -42.595  49.365 -37.345  52.5 -40.48  47.25 -45.73  52.5 -51.23  49.365 -54.365  44.115 -49.115  38.615 -54.365  35.481 -51.23  40.731 -45.73  35.481 -40.48  38.615 -37.345 Z M70.635 -37.345  75.885 -42.595  81.385 -37.345  84.519 -40.48  79.269 -45.73  84.519 -51.23  81.385 -54.365  75.885 -49.115  70.635 -54.365  67.5 -51.23  72.75 -45.73  67.5 -40.48  70.635 -37.345 Z M60.017 9.77 Q50.683 9.77 42.465 6.228 Q34.248 2.685 28.17 -3.388 Q22.091 -9.46 18.546 -17.67 Q15 -25.879 15 -35.213 Q15 -44.547 18.542 -52.764 Q22.085 -60.982 28.158 -67.06 Q34.23 -73.138 42.44 -76.684 Q50.649 -80.23 59.983 -80.23 Q69.317 -80.23 77.534 -76.688 Q85.752 -73.145 91.83 -67.072 Q97.909 -61 101.454 -52.79 Q105 -44.581 105 -35.247 Q105 -25.913 101.458 -17.695 Q97.915 -9.478 91.842 -3.4 Q85.77 2.679 77.56 6.224 Q69.351 9.77 60.017 9.77 Z"/></g><g id="Ultralight-M" transform="matrix(1 0 0 1 506.415 1126)"><path d="M60 -27.73 Q53.25 -27.73 47.5 -24.042 Q41.75 -20.355 38.75 -14.23 H81.25 Q78.25 -20.355 72.5 -24.042 Q66.75 -27.73 60 -27.73 Z M38.5 -37.98  44 -43.23  49.25 -37.98  51.75 -40.48  46.5 -45.73  51.75 -51.23  49.25 -53.73  44 -48.48  38.5 -53.73  36 -51.23  41.25 -45.73  36 -40.48  38.5 -37.98 Z M70.75 -37.98  76 -43.23  81.5 -37.98  84 -40.48  78.75 -45.73  84 -51.23  81.5 -53.73  76 -48.48  70.75 -53.73  68.25 -51.23  73.5 -45.73  68.25 -40.48  70.75 -37.98 Z M60.022 8.27 Q51 8.27 43.055 4.846 Q35.11 1.422 29.233 -4.447 Q23.357 -10.317 19.928 -18.252 Q16.5 -26.186 16.5 -35.208 Q16.5 -44.23 19.924 -52.175 Q23.348 -60.12 29.217 -65.996 Q35.087 -71.873 43.022 -75.302 Q50.956 -78.73 59.978 -78.73 Q69 -78.73 76.945 -75.306 Q84.89 -71.882 90.766 -66.013 Q96.644 -60.143 100.072 -52.208 Q103.5 -44.273 103.5 -35.252 Q103.5 -26.23 100.076 -18.285 Q96.652 -10.34 90.783 -4.463 Q84.913 1.414 76.978 4.842 Q69.043 8.27 60.022 8.27 Z"/></g><g id="Bold-S" transform="matrix(1 0 0 1 2294.23 696)"><path d="M47.34 -27.636 Q41.225 -27.636 36.047 -24.776 Q30.87 -21.916 28.601 -16.294 H66.079 Q63.81 -21.916 58.633 -24.776 Q53.455 -27.636 47.34 -27.636 Z M31.067 -37.991  34.42 -41.345  37.773 -37.991  41.127 -41.345  37.773 -44.698  41.127 -48.051  37.773 -51.404  34.42 -48.051  31.067 -51.404  27.714 -48.051  31.067 -44.698  27.714 -41.345  31.067 -37.991 Z M57.005 -37.991  60.358 -41.345  63.712 -37.991  67.065 -41.345  63.712 -44.698  67.065 -48.051  63.712 -51.404  60.358 -48.051  57.005 -51.404  53.652 -48.051  57.005 -44.698  53.652 -41.345  57.005 -37.991 Z M47.332 5.995 Q38.858 5.995 31.363 2.79 Q23.867 -0.415 18.196 -6.086 Q12.525 -11.757 9.32 -19.261 Q6.115 -26.765 6.115 -35.238 Q6.115 -43.81 9.32 -51.257 Q12.525 -58.703 18.196 -64.374 Q23.867 -70.045 31.371 -73.25 Q38.875 -76.455 47.348 -76.455 Q55.92 -76.455 63.367 -73.25 Q70.813 -70.045 76.484 -64.374 Q82.155 -58.703 85.36 -51.248 Q88.565 -43.794 88.565 -35.222 Q88.565 -26.748 85.36 -19.253 Q82.155 -11.757 76.484 -6.086 Q70.813 -0.415 63.358 2.79 Q55.904 5.995 47.332 5.995 Z"/></g><g id="Semibold-S" transform="matrix(1 0 0 1 1998.1 696)"><path d="M47.34 -27.636 Q41.225 -27.636 36.047 -24.776 Q30.87 -21.916 28.601 -16.294 H66.079 Q63.81 -21.916 58.633 -24.776 Q53.455 -27.636 47.34 -27.636 Z M31.067 -37.991  34.42 -41.345  37.773 -37.991  41.127 -41.345  37.773 -44.698  41.127 -48.051  37.773 -51.404  34.42 -48.051  31.067 -51.404  27.714 -48.051  31.067 -44.698  27.714 -41.345  31.067 -37.991 Z M57.005 -37.991  60.358 -41.345  63.712 -37.991  67.065 -41.345  63.712 -44.698  67.065 -48.051  63.712 -51.404  60.358 -48.051  57.005 -51.404  53.652 -48.051  57.005 -44.698  53.652 -41.345  57.005 -37.991 Z M47.335 4.537 Q39.158 4.537 31.92 1.439 Q24.682 -1.659 19.225 -7.115 Q13.769 -12.572 10.671 -19.815 Q7.573 -27.058 7.573 -35.235 Q7.573 -43.51 10.671 -50.699 Q13.769 -57.888 19.225 -63.345 Q24.682 -68.801 31.925 -71.899 Q39.168 -74.997 47.345 -74.997 Q55.62 -74.997 62.809 -71.899 Q69.998 -68.801 75.455 -63.345 Q80.911 -57.888 84.009 -50.694 Q87.107 -43.501 87.107 -35.225 Q87.107 -27.048 84.009 -19.81 Q80.911 -12.572 75.455 -7.115 Q69.998 -1.659 62.804 1.439 Q55.611 4.537 47.335 4.537 Z"/></g><g id="Medium-S" transform="matrix(1 0 0 1 1701.85 696)"><path d="M47.34 -27.636 Q41.225 -27.636 36.047 -24.776 Q30.87 -21.916 28.601 -16.294 H66.079 Q63.81 -21.916 58.633 -24.776 Q53.455 -27.636 47.34 -27.636 Z M31.067 -37.991  34.42 -41.345  37.773 -37.991  41.127 -41.345  37.773 -44.698  41.127 -48.051  37.773 -51.404  34.42 -48.051  31.067 -51.404  27.714 -48.051  31.067 -44.698  27.714 -41.345  31.067 -37.991 Z M57.005 -37.991  60.358 -41.345  63.712 -37.991  67.065 -41.345  63.712 -44.698  67.065 -48.051  63.712 -51.404  60.358 -48.051  57.005 -51.404  53.652 -48.051  57.005 -44.698  53.652 -41.345  57.005 -37.991 Z M47.338 3.444 Q39.384 3.444 32.338 0.426 Q25.293 -2.592 19.997 -7.887 Q14.702 -13.183 11.684 -20.23 Q8.666 -27.277 8.666 -35.232 Q8.666 -43.285 11.684 -50.281 Q14.702 -57.277 19.997 -62.573 Q25.293 -67.868 32.34 -70.886 Q39.387 -73.904 47.342 -73.904 Q55.395 -73.904 62.391 -70.886 Q69.387 -67.868 74.683 -62.573 Q79.978 -57.277 82.996 -50.279 Q86.014 -43.281 86.014 -35.228 Q86.014 -27.274 82.996 -20.228 Q79.978 -13.183 74.683 -7.887 Q69.387 -2.592 62.389 0.426 Q55.391 3.444 47.338 3.444 Z"/></g><g id="Regular-S" transform="matrix(1 0 0 1 1405.73 696)"><path d="M47.34 -27.636 Q41.225 -27.636 36.047 -24.776 Q30.87 -21.916 28.601 -16.294 H66.079 Q63.81 -21.916 58.633 -24.776 Q53.455 -27.636 47.34 -27.636 Z M31.067 -37.991  34.42 -41.345  37.773 -37.991  41.127 -41.345  37.773 -44.698  41.127 -48.051  37.773 -51.404  34.42 -48.051  31.067 -51.404  27.714 -48.051  31.067 -44.698  27.714 -41.345  31.067 -37.991 Z M57.005 -37.991  60.358 -41.345  63.712 -37.991  67.065 -41.345  63.712 -44.698  67.065 -48.051  63.712 -51.404  60.358 -48.051  57.005 -51.404  53.652 -48.051  57.005 -44.698  53.652 -41.345  57.005 -37.991 Z M47.34 2.642 Q39.549 2.642 32.645 -0.317 Q25.741 -3.275 20.563 -8.453 Q15.386 -13.631 12.427 -20.535 Q9.468 -27.439 9.468 -35.23 Q9.468 -43.12 12.427 -49.974 Q15.386 -56.829 20.563 -62.007 Q25.741 -67.184 32.645 -70.143 Q39.549 -73.102 47.34 -73.102 Q55.23 -73.102 62.084 -70.143 Q68.939 -67.184 74.117 -62.007 Q79.294 -56.829 82.253 -49.974 Q85.212 -43.12 85.212 -35.23 Q85.212 -27.439 82.253 -20.535 Q79.294 -13.631 74.117 -8.453 Q68.939 -3.275 62.084 -0.317 Q55.23 2.642 47.34 2.642 Z"/></g><g id="Light-S" transform="matrix(1 0 0 1 1109.75 696)"><path d="M47.34 -27.636 Q41.756 -27.636 36.939 -25.117 Q32.121 -22.599 29.891 -17.508 H64.789 Q62.559 -22.599 57.741 -25.117 Q52.924 -27.636 47.34 -27.636 Z M30.915 -38.826  34.268 -42.179  37.622 -38.826  40.14 -41.345  36.787 -44.698  40.14 -48.051  37.622 -50.57  34.268 -47.217  30.915 -50.57  28.397 -48.051  31.75 -44.698  28.397 -41.345  30.915 -38.826 Z M57.157 -38.826  60.51 -42.179  63.864 -38.826  66.382 -41.345  63.029 -44.698  66.382 -48.051  63.864 -50.57  60.51 -47.217  57.157 -50.57  54.638 -48.051  57.992 -44.698  54.638 -41.345  57.157 -38.826 Z M47.347 0.669 Q39.966 0.669 33.42 -2.134 Q26.875 -4.936 21.962 -9.847 Q17.049 -14.758 14.245 -21.3 Q11.441 -27.843 11.441 -35.223 Q11.441 -42.703 14.244 -49.199 Q17.046 -55.695 21.957 -60.608 Q26.868 -65.521 33.41 -68.325 Q39.953 -71.129 47.333 -71.129 Q54.813 -71.129 61.309 -68.326 Q67.805 -65.524 72.718 -60.613 Q77.631 -55.702 80.435 -49.209 Q83.239 -42.716 83.239 -35.237 Q83.239 -27.856 80.436 -21.31 Q77.634 -14.765 72.723 -9.852 Q67.812 -4.939 61.319 -2.135 Q54.826 0.669 47.347 0.669 Z"/></g><g id="Thin-S" transform="matrix(1 0 0 1 814.015 696)"><path d="M47.34 -27.636 Q42.287 -27.636 37.83 -25.459 Q33.373 -23.281 31.181 -18.722 H63.499 Q61.307 -23.281 56.85 -25.459 Q52.393 -27.636 47.34 -27.636 Z M30.763 -39.661  34.117 -43.014  37.47 -39.661  39.154 -41.345  35.801 -44.698  39.154 -48.051  37.47 -49.735  34.117 -46.382  30.763 -49.735  29.079 -48.051  32.432 -44.698  29.079 -41.345  30.763 -39.661 Z M57.309 -39.661  60.662 -43.014  64.015 -39.661  65.699 -41.345  62.346 -44.698  65.699 -48.051  64.015 -49.735  60.662 -46.382  57.309 -49.735  55.625 -48.051  58.978 -44.698  55.625 -41.345  57.309 -39.661 Z M47.353 -1.303 Q40.383 -1.303 34.196 -3.95 Q28.008 -6.597 23.36 -11.241 Q18.712 -15.884 16.063 -22.065 Q13.413 -28.247 13.413 -35.217 Q13.413 -42.286 16.06 -48.424 Q18.707 -54.562 23.351 -59.21 Q27.994 -63.858 34.175 -66.507 Q40.357 -69.157 47.327 -69.157 Q54.396 -69.157 60.534 -66.51 Q66.672 -63.863 71.32 -59.219 Q75.968 -54.576 78.617 -48.444 Q81.267 -42.312 81.267 -35.243 Q81.267 -28.273 78.62 -22.086 Q75.973 -15.898 71.329 -11.25 Q66.686 -6.602 60.554 -3.953 Q54.422 -1.303 47.353 -1.303 Z"/></g><g id="Ultralight-S" transform="matrix(1 0 0 1 517.792 696)"><path d="M47.34 -27.636 Q42.606 -27.636 38.365 -25.663 Q34.124 -23.691 31.955 -19.45 H62.726 Q60.556 -23.691 56.315 -25.663 Q52.074 -27.636 47.34 -27.636 Z M30.672 -40.161  34.026 -43.514  37.379 -40.161  38.562 -41.345  35.209 -44.698  38.562 -48.051  37.379 -49.235  34.026 -45.881  30.672 -49.235  29.489 -48.051  32.842 -44.698  29.489 -41.345  30.672 -40.161 Z M57.4 -40.161  60.753 -43.514  64.106 -40.161  65.29 -41.345  61.937 -44.698  65.29 -48.051  64.106 -49.235  60.753 -45.881  57.4 -49.235  56.216 -48.051  59.57 -44.698  56.216 -41.345  57.4 -40.161 Z M47.357 -2.486 Q40.634 -2.486 34.661 -5.04 Q28.688 -7.594 24.199 -12.077 Q19.71 -16.56 17.153 -22.525 Q14.597 -28.489 14.597 -35.213 Q14.597 -42.035 17.15 -47.958 Q19.704 -53.882 24.187 -58.371 Q28.67 -62.86 34.635 -65.417 Q40.599 -67.973 47.323 -67.973 Q54.145 -67.973 60.068 -65.42 Q65.992 -62.866 70.481 -58.383 Q74.97 -53.9 77.527 -47.985 Q80.084 -42.069 80.084 -35.247 Q80.084 -28.523 77.53 -22.551 Q74.976 -16.578 70.493 -12.089 Q66.01 -7.6 60.095 -5.043 Q54.179 -2.486 47.357 -2.486 Z"/></g></g></svg>