<svg xmlns="http://www.w3.org/2000/svg" version="1.1" width="3300" height="2000"><g id="Notes"><style>
    text {
      font-family: monospace;
      text-anchor: middle;
    }
    text.emphasis {
      font-weight:bold;
    }
    text.lanchor {
      text-anchor: start;
    }
  </style><rect height="2200" id="artboard" fill="white" width="3300" x="0" y="0"/><line id="" style="fill:none;stroke:black;stroke-width:0.5;" x1="263" x2="3036" y1="292" y2="292"/><text class="lanchor emphasis" transform="matrix(1 0 0 1 263 322)">Weight/Scale Variations</text><text transform="matrix(1 0 0 1 559.711 322)">Ultralight</text><text transform="matrix(1 0 0 1 856.422 322)">Thin</text><text transform="matrix(1 0 0 1 1153.13 322)">Light</text><text transform="matrix(1 0 0 1 1449.84 322)">Regular</text><text transform="matrix(1 0 0 1 1746.56 322)">Medium</text><text transform="matrix(1 0 0 1 2043.27 322)">Semibold</text><text transform="matrix(1 0 0 1 2339.98 322)">Bold</text><text transform="matrix(1 0 0 1 2636.69 322)">Heavy</text><text transform="matrix(1 0 0 1 2933.4 322)">Black</text><text id="template-version" style="text-anchor: end;" transform="matrix(1 0 0 1 3036 1933)">Template v.1.0</text><text class="lanchor" transform="matrix(1 0 0 1 263 726)">Small</text><text class="lanchor" transform="matrix(1 0 0 1 263 1156)">Medium</text><text class="lanchor" transform="matrix(1 0 0 1 263 1586)">Large</text></g><g id="Guides"><g id="H-reference" style="fill:#27AAE1;stroke:none;" transform="matrix(1 0 0 1 339 696)"><path d="M 54.9316 0 L 57.666 0 L 30.5664 -70.459 L 28.0762 -70.459 L 0.976562 0 L 3.66211 0 L 12.9395 -24.4629 L 45.7031 -24.4629 Z M 29.1992 -67.0898 L 29.4434 -67.0898 L 44.8242 -26.709 L 13.8184 -26.709 Z"/></g><line id="Baseline-S" style="fill:none;stroke:#27AAE1;opacity:1;stroke-width:0.577;" x1="263" x2="3036" y1="696" y2="696"/><line id="Capline-S" style="fill:none;stroke:#27AAE1;opacity:1;stroke-width:0.577;" x1="263" x2="3036" y1="625.541" y2="625.541"/><g id="H-reference" style="fill:#27AAE1;stroke:none;" transform="matrix(1 0 0 1 339 1126)"><path d="M 54.9316 0 L 57.666 0 L 30.5664 -70.459 L 28.0762 -70.459 L 0.976562 0 L 3.66211 0 L 12.9395 -24.4629 L 45.7031 -24.4629 Z M 29.1992 -67.0898 L 29.4434 -67.0898 L 44.8242 -26.709 L 13.8184 -26.709 Z"/></g><line id="Baseline-M" style="fill:none;stroke:#27AAE1;opacity:1;stroke-width:0.577;" x1="263" x2="3036" y1="1126" y2="1126"/><line id="Capline-M" style="fill:none;stroke:#27AAE1;opacity:1;stroke-width:0.577;" x1="263" x2="3036" y1="1055.54" y2="1055.54"/><g id="H-reference" style="fill:#27AAE1;stroke:none;" transform="matrix(1 0 0 1 339 1556)"><path d="M 54.9316 0 L 57.666 0 L 30.5664 -70.459 L 28.0762 -70.459 L 0.976562 0 L 3.66211 0 L 12.9395 -24.4629 L 45.7031 -24.4629 Z M 29.1992 -67.0898 L 29.4434 -67.0898 L 44.8242 -26.709 L 13.8184 -26.709 Z"/></g><line id="Baseline-L" style="fill:none;stroke:#27AAE1;opacity:1;stroke-width:0.577;" x1="263" x2="3036" y1="1556" y2="1556"/><line id="Capline-L" style="fill:none;stroke:#27AAE1;opacity:1;stroke-width:0.577;" x1="263" x2="3036" y1="1485.54" y2="1485.54"/><rect height="119.336" id="left-margin" style="fill:darkred;stroke:none;opacity:0.4;" width="12.4512" x="1394.06" y="1030.79"/><rect height="119.336" id="right-margin" style="fill:darkgreen;stroke:none;opacity:0.4;" width="12.4512" x="1502.5112" y="1030.79"/><rect x="1406.5112" y="1045" width="96" height="96" fill="none" stroke="blue" stroke-dasharray="5"/><rect x="1394.06" y="1030.79" width="120.9024" height="119.336" fill="none" stroke="blue"/></g><g id="Symbols"><g id="Bold-L" transform="matrix(1 0 0 1 2266 1556)"><path d="M77.4 0.084 Q88.526 0.084 97.718 -6.072 Q106.909 -12.228 110.618 -22.652 H44.183 Q48.053 -12.228 57.163 -6.072 Q66.274 0.084 77.4 0.084 Z M48.375 -42.325  55.954 -49.904  63.532 -42.325  70.789 -49.42  55.954 -64.094  41.28 -49.42  48.375 -42.325 Z M91.429 -42.325  99.008 -49.904  106.586 -42.325  113.843 -49.42  99.008 -64.094  84.334 -49.42  91.429 -42.325 Z M77.422 33.301 Q63.21 33.301 50.713 27.98 Q38.216 22.659 28.864 13.306 Q19.511 3.954 14.19 -8.521 Q8.869 -20.995 8.869 -35.208 Q8.869 -49.42 14.19 -61.917 Q19.511 -74.414 28.838 -83.775 Q38.166 -93.136 50.652 -98.529 Q63.139 -103.922 77.364 -103.922 Q91.59 -103.922 104.106 -98.542 Q116.622 -93.161 125.971 -83.821 Q135.32 -74.481 140.706 -61.978 Q146.093 -49.475 146.093 -35.23 Q146.093 -20.995 140.699 -8.501 Q135.306 3.993 125.945 13.326 Q116.584 22.659 104.109 27.98 Q91.635 33.301 77.422 33.301 Z"/></g><g id="Semibold-L" transform="matrix(1 0 0 1 1970.27 1556)"><path d="M77.4 0.084 Q88.316 0.084 97.402 -5.884 Q106.488 -11.853 110.337 -22.022 H44.463 Q48.473 -11.853 57.479 -5.884 Q66.484 0.084 77.4 0.084 Z M48.515 -42.956  55.954 -50.394  63.392 -42.956  70.018 -49.49  55.954 -63.463  41.981 -49.49  48.515 -42.956 Z M91.569 -42.956  99.008 -50.394  106.446 -42.956  113.071 -49.49  99.008 -63.463  85.035 -49.49  91.569 -42.956 Z M77.413 31.549 Q63.561 31.549 51.379 26.333 Q39.198 21.116 30.126 12.044 Q21.054 2.972 15.837 -9.197 Q10.621 -21.365 10.621 -35.217 Q10.621 -49.069 15.837 -61.251 Q21.054 -73.432 30.111 -82.509 Q39.169 -91.586 51.345 -96.843 Q63.52 -102.1 77.38 -102.1 Q91.239 -102.1 103.432 -96.85 Q115.624 -91.6 124.694 -82.535 Q133.764 -73.471 139.017 -61.286 Q144.27 -49.1 144.27 -35.23 Q144.27 -21.365 139.013 -9.185 Q133.756 2.994 124.679 12.055 Q115.602 21.116 103.433 26.333 Q91.265 31.549 77.413 31.549 Z"/></g><g id="Medium-L" transform="matrix(1 0 0 1 1674.31 1556)"><path d="M77.4 0.084 Q88.158 0.084 97.165 -5.744 Q106.173 -11.571 110.127 -21.548 H44.673 Q48.789 -11.571 57.715 -5.744 Q66.642 0.084 77.4 0.084 Z M48.62 -43.429  55.954 -50.763  63.287 -43.429  69.439 -49.543  55.954 -62.99  42.507 -49.543  48.62 -43.429 Z M91.674 -43.429  99.008 -50.763  106.341 -43.429  112.493 -49.543  99.008 -62.99  85.561 -49.543  91.674 -43.429 Z M77.405 30.234 Q63.823 30.234 51.879 25.097 Q39.934 19.96 31.072 11.098 Q22.21 2.236 17.073 -9.703 Q11.936 -21.643 11.936 -35.225 Q11.936 -48.807 17.073 -60.751 Q22.21 -72.696 31.066 -81.56 Q39.922 -90.424 51.864 -95.578 Q63.806 -100.733 77.391 -100.733 Q90.977 -100.733 102.926 -95.581 Q114.875 -90.43 123.736 -81.571 Q132.597 -72.712 137.75 -60.766 Q142.903 -48.82 142.903 -35.23 Q142.903 -21.643 137.748 -9.699 Q132.594 2.245 123.73 11.103 Q114.866 19.96 102.927 25.097 Q90.987 30.234 77.405 30.234 Z"/></g><g id="Regular-L" transform="matrix(1 0 0 1 1378.56 1556)"><path d="M77.4 0.084 Q88.043 0.084 96.992 -5.641 Q105.941 -11.365 109.972 -21.201 H44.828 Q49.02 -11.365 57.889 -5.641 Q66.758 0.084 77.4 0.084 Z M48.697 -43.776  55.954 -51.032  63.21 -43.776  69.015 -49.581  55.954 -62.642  42.892 -49.581  48.697 -43.776 Z M91.751 -43.776  99.008 -51.032  106.264 -43.776  112.069 -49.581  99.008 -62.642  85.946 -49.581  91.751 -43.776 Z M77.4 29.27 Q64.016 29.27 52.245 24.191 Q40.474 19.111 31.766 10.404 Q23.059 1.696 17.979 -10.075 Q12.9 -21.846 12.9 -35.23 Q12.9 -48.614 17.979 -60.385 Q23.059 -72.156 31.766 -80.864 Q40.474 -89.571 52.245 -94.651 Q64.016 -99.73 77.4 -99.73 Q90.784 -99.73 102.555 -94.651 Q114.326 -89.571 123.034 -80.864 Q131.741 -72.156 136.821 -60.385 Q141.9 -48.614 141.9 -35.23 Q141.9 -21.846 136.821 -10.075 Q131.741 1.696 123.034 10.404 Q114.326 19.111 102.555 24.191 Q90.784 29.27 77.4 29.27 Z"/></g><g id="Light-L" transform="matrix(1 0 0 1 1082.77 1556)"><path d="M77.4 -1.839 Q87.298 -1.839 95.627 -7.16 Q103.956 -12.481 107.926 -21.511 H46.874 Q50.943 -12.481 59.222 -7.16 Q67.502 -1.839 77.4 -1.839 Z M49.132 -44.582  56.326 -51.839  63.582 -44.582  68.271 -49.271  56.326 -61.216  44.443 -49.271  49.132 -44.582 Z M91.317 -44.582  98.573 -51.839  105.768 -44.582  110.518 -49.271  98.573 -61.216  86.628 -49.271  91.317 -44.582 Z M77.411 26.045 Q64.698 26.045 53.513 21.22 Q42.327 16.396 34.053 8.125 Q25.779 -0.146 20.952 -11.326 Q16.125 -22.507 16.125 -35.219 Q16.125 -47.932 20.95 -59.117 Q25.774 -70.303 34.045 -78.577 Q42.316 -86.851 53.496 -91.678 Q64.677 -96.505 77.389 -96.505 Q90.102 -96.505 101.287 -91.68 Q112.473 -86.856 120.747 -78.585 Q129.021 -70.314 133.848 -59.134 Q138.675 -47.953 138.675 -35.241 Q138.675 -22.528 133.85 -11.343 Q129.026 -0.157 120.755 8.117 Q112.484 16.391 101.304 21.218 Q90.123 26.045 77.411 26.045 Z"/></g><g id="Thin-L" transform="matrix(1 0 0 1 787.282 1556)"><path d="M77.4 -3.761 Q86.554 -3.761 94.263 -8.68 Q101.972 -13.598 105.879 -21.821 H48.921 Q52.865 -13.598 60.556 -8.68 Q68.246 -3.761 77.4 -3.761 Z M49.566 -45.389  56.698 -52.645  63.954 -45.389  67.527 -48.961  56.698 -59.79  45.993 -48.961  49.566 -45.389 Z M90.883 -45.389  98.139 -52.645  105.271 -45.389  108.968 -48.961  98.139 -59.79  87.311 -48.961  90.883 -45.389 Z M77.422 22.82 Q65.381 22.82 54.78 18.25 Q44.18 13.681 36.339 5.847 Q28.498 -1.987 23.924 -12.577 Q19.35 -23.168 19.35 -35.208 Q19.35 -47.249 23.92 -57.85 Q28.489 -68.45 36.323 -76.291 Q44.157 -84.132 54.747 -88.706 Q65.338 -93.28 77.378 -93.28 Q89.419 -93.28 100.02 -88.71 Q110.62 -84.141 118.461 -76.307 Q126.302 -68.473 130.876 -57.883 Q135.45 -47.292 135.45 -35.252 Q135.45 -23.211 130.88 -12.61 Q126.311 -2.01 118.477 5.831 Q110.643 13.672 100.053 18.246 Q89.462 22.82 77.422 22.82 Z"/></g><g id="Ultralight-L" transform="matrix(1 0 0 1 491.205 1556)"><path d="M77.4 -4.915 Q86.108 -4.915 93.444 -9.591 Q100.781 -14.267 104.651 -22.007 H50.149 Q54.019 -14.267 61.356 -9.591 Q68.692 -4.915 77.4 -4.915 Z M49.826 -45.872  56.921 -53.129  64.177 -45.872  67.08 -48.775  56.921 -58.934  46.924 -48.775  49.826 -45.872 Z M90.623 -45.872  97.879 -53.129  104.974 -45.872  108.038 -48.775  97.879 -58.934  87.72 -48.775  90.623 -45.872 Z M77.428 20.885 Q65.79 20.885 55.541 16.468 Q45.292 12.051 37.711 4.48 Q30.13 -3.092 25.707 -13.328 Q21.285 -23.564 21.285 -35.202 Q21.285 -46.84 25.702 -57.089 Q30.119 -67.338 37.69 -74.919 Q45.262 -82.5 55.498 -86.923 Q65.734 -91.345 77.372 -91.345 Q89.01 -91.345 99.259 -86.928 Q109.508 -82.511 117.089 -74.94 Q124.67 -67.368 129.093 -57.132 Q133.515 -46.896 133.515 -35.258 Q133.515 -23.62 129.098 -13.371 Q124.681 -3.122 117.11 4.459 Q109.538 12.04 99.302 16.463 Q89.066 20.885 77.428 20.885 Z"/></g><g id="Bold-M" transform="matrix(1 0 0 1 2281.8 1126)"><path d="M60 -7.73 Q69 -7.73 76.125 -12.98 Q83.25 -18.23 86.125 -26.73 H33.875 Q36.75 -18.23 43.875 -12.98 Q51 -7.73 60 -7.73 Z M38.625 -38.73  44.5 -44.355  50.125 -38.73  56.75 -45.23  44.5 -57.73  32 -45.23  38.625 -38.73 Z M69.875 -38.73  75.5 -44.355  81.375 -38.73  88 -45.23  75.5 -57.73  63.25 -45.23  69.875 -38.73 Z M60 19.02 Q48.75 19.02 38.875 14.77 Q29 10.52 21.625 3.145 Q14.25 -4.23 10 -14.105 Q5.75 -23.98 5.75 -35.23 Q5.75 -46.48 10 -56.355 Q14.25 -66.23 21.625 -73.605 Q29 -80.98 38.875 -85.23 Q48.75 -89.48 60 -89.48 Q71.25 -89.48 81.125 -85.23 Q91 -80.98 98.375 -73.605 Q105.75 -66.23 110 -56.355 Q114.25 -46.48 114.25 -35.23 Q114.25 -23.98 110 -14.105 Q105.75 -4.23 98.375 3.145 Q91 10.52 81.125 14.77 Q71.25 19.02 60 19.02 Z"/></g><g id="Semibold-M" transform="matrix(1 0 0 1 1985.97 1126)"><path d="M60 -7.73 Q68.783 -7.73 75.826 -12.79 Q82.87 -17.85 85.853 -26.078 H34.147 Q37.13 -17.85 44.174 -12.79 Q51.217 -7.73 60 -7.73 Z M38.788 -39.382  44.5 -44.844  49.962 -39.382  55.989 -45.339  44.5 -57.078  32.761 -45.339  38.788 -39.382 Z M70.038 -39.382  75.5 -44.844  81.212 -39.382  87.239 -45.339  75.5 -57.078  64.011 -45.339  70.038 -39.382 Z M60 17.172 Q49.13 17.172 39.581 13.058 Q30.032 8.944 22.929 1.841 Q15.826 -5.262 11.712 -14.811 Q7.598 -24.36 7.598 -35.23 Q7.598 -46.1 11.712 -55.648 Q15.826 -65.197 22.929 -72.301 Q30.032 -79.404 39.581 -83.518 Q49.13 -87.632 60 -87.632 Q70.87 -87.632 80.418 -83.518 Q89.968 -79.404 97.071 -72.301 Q104.174 -65.197 108.288 -55.648 Q112.402 -46.1 112.402 -35.23 Q112.402 -24.36 108.288 -14.811 Q104.174 -5.262 97.071 1.841 Q89.968 8.944 80.418 13.058 Q70.87 17.172 60 17.172 Z"/></g><g id="Medium-M" transform="matrix(1 0 0 1 1689.91 1126)"><path d="M60 -7.73 Q68.62 -7.73 75.602 -12.647 Q82.584 -17.564 85.65 -25.589 H34.35 Q37.416 -17.564 44.398 -12.647 Q51.38 -7.73 60 -7.73 Z M38.91 -39.871  44.5 -45.211  49.84 -39.871  55.419 -45.42  44.5 -56.589  33.331 -45.42  38.91 -39.871 Z M70.16 -39.871  75.5 -45.211  81.09 -39.871  86.668 -45.42  75.5 -56.589  64.582 -45.42  70.16 -39.871 Z M60 15.786 Q49.416 15.786 40.111 11.774 Q30.807 7.762 23.908 0.862 Q17.008 -6.037 12.996 -15.341 Q8.984 -24.646 8.984 -35.23 Q8.984 -45.814 12.996 -55.119 Q17.008 -64.423 23.908 -71.322 Q30.807 -78.222 40.111 -82.234 Q49.416 -86.246 60 -86.246 Q70.584 -86.246 79.889 -82.234 Q89.193 -78.222 96.092 -71.322 Q102.992 -64.423 107.004 -55.119 Q111.016 -45.814 111.016 -35.23 Q111.016 -24.646 107.004 -15.341 Q102.992 -6.037 96.092 0.862 Q89.193 7.762 79.889 11.774 Q70.584 15.786 60 15.786 Z"/></g><g id="Regular-M" transform="matrix(1 0 0 1 1394.06 1126)"><path d="M60 -7.73 Q68.5 -7.73 75.438 -12.542 Q82.375 -17.355 85.5 -25.23 H34.5 Q37.625 -17.355 44.562 -12.542 Q51.5 -7.73 60 -7.73 Z M39 -40.23  44.5 -45.48  49.75 -40.23  55 -45.48  44.5 -56.23  33.75 -45.48  39 -40.23 Z M70.25 -40.23  75.5 -45.48  81 -40.23  86.25 -45.48  75.5 -56.23  65 -45.48  70.25 -40.23 Z M60 14.77 Q49.625 14.77 40.5 10.833 Q31.375 6.895 24.625 0.145 Q17.875 -6.605 13.938 -15.73 Q10 -24.855 10 -35.23 Q10 -45.605 13.938 -54.73 Q17.875 -63.855 24.625 -70.605 Q31.375 -77.355 40.5 -81.292 Q49.625 -85.23 60 -85.23 Q70.375 -85.23 79.5 -81.292 Q88.625 -77.355 95.375 -70.605 Q102.125 -63.855 106.062 -54.73 Q110 -45.605 110 -35.23 Q110 -24.855 106.062 -15.73 Q102.125 -6.605 95.375 0.145 Q88.625 6.895 79.5 10.833 Q70.375 14.77 60 14.77 Z"/></g><g id="Light-M" transform="matrix(1 0 0 1 1098.18 1126)"><path d="M60 -9.269 Q67.827 -9.269 74.308 -13.648 Q80.788 -18.028 83.865 -25.23 H36.135 Q39.212 -18.028 45.692 -13.648 Q52.173 -9.269 60 -9.269 Z M39 -41.288  44.5 -46.634  49.846 -41.288  54.038 -45.48  44.5 -55.172  34.808 -45.48  39 -41.288 Z M70.154 -41.288  75.5 -46.634  81 -41.288  85.192 -45.48  75.5 -55.172  65.962 -45.48  70.154 -41.288 Z M60.008 12.27 Q50.154 12.27 41.483 8.53 Q32.812 4.79 26.398 -1.621 Q19.983 -8.033 16.242 -16.7 Q12.5 -25.367 12.5 -35.222 Q12.5 -45.076 16.24 -53.747 Q19.98 -62.418 26.391 -68.832 Q32.803 -75.247 41.47 -78.988 Q50.137 -82.73 59.992 -82.73 Q69.846 -82.73 78.517 -78.99 Q87.188 -75.25 93.602 -68.839 Q100.017 -62.427 103.758 -53.76 Q107.5 -45.093 107.5 -35.238 Q107.5 -25.384 103.76 -16.713 Q100.02 -8.042 93.609 -1.628 Q87.197 4.787 78.53 8.528 Q69.863 12.27 60.008 12.27 Z"/></g><g id="Thin-M" transform="matrix(1 0 0 1 802.565 1126)"><path d="M60 -10.807 Q67.154 -10.807 73.178 -14.754 Q79.202 -18.701 82.231 -25.23 H37.769 Q40.798 -18.701 46.822 -14.754 Q52.846 -10.807 60 -10.807 Z M39 -42.345  44.5 -47.788  49.942 -42.345  53.077 -45.48  44.5 -54.115  35.865 -45.48  39 -42.345 Z M70.058 -42.345  75.5 -47.788  81 -42.345  84.135 -45.48  75.5 -54.115  66.923 -45.48  70.058 -42.345 Z M60.017 9.77 Q50.683 9.77 42.465 6.228 Q34.248 2.685 28.17 -3.388 Q22.091 -9.46 18.546 -17.67 Q15 -25.879 15 -35.213 Q15 -44.547 18.542 -52.764 Q22.085 -60.982 28.158 -67.06 Q34.23 -73.138 42.44 -76.684 Q50.649 -80.23 59.983 -80.23 Q69.317 -80.23 77.534 -76.688 Q85.752 -73.145 91.83 -67.072 Q97.909 -61 101.454 -52.79 Q105 -44.581 105 -35.247 Q105 -25.913 101.458 -17.695 Q97.915 -9.478 91.842 -3.4 Q85.77 2.679 77.56 6.224 Q69.351 9.77 60.017 9.77 Z"/></g><g id="Ultralight-M" transform="matrix(1 0 0 1 506.415 1126)"><path d="M60 -11.73 Q66.75 -11.73 72.5 -15.417 Q78.25 -19.105 81.25 -25.23 H38.75 Q41.75 -19.105 47.5 -15.417 Q53.25 -11.73 60 -11.73 Z M39 -42.98  44.5 -48.48  50 -42.98  52.5 -45.48  44.5 -53.48  36.5 -45.48  39 -42.98 Z M70 -42.98  75.5 -48.48  81 -42.98  83.5 -45.48  75.5 -53.48  67.5 -45.48  70 -42.98 Z M60.022 8.27 Q51 8.27 43.055 4.846 Q35.11 1.422 29.233 -4.447 Q23.357 -10.317 19.928 -18.252 Q16.5 -26.186 16.5 -35.208 Q16.5 -44.23 19.924 -52.175 Q23.348 -60.12 29.217 -65.996 Q35.087 -71.873 43.022 -75.302 Q50.956 -78.73 59.978 -78.73 Q69 -78.73 76.945 -75.306 Q84.89 -71.882 90.766 -66.013 Q96.644 -60.143 100.072 -52.208 Q103.5 -44.273 103.5 -35.252 Q103.5 -26.23 100.076 -18.285 Q96.652 -10.34 90.783 -4.463 Q84.913 1.414 76.978 4.842 Q69.043 8.27 60.022 8.27 Z"/></g><g id="Bold-S" transform="matrix(1 0 0 1 2294.23 696)"><path d="M47.34 -16.294 Q53.849 -16.294 59.175 -19.499 Q64.501 -22.705 66.572 -28.819 H28.108 Q30.179 -22.705 35.505 -19.499 Q40.831 -16.294 47.34 -16.294 Z M31.856 -38.485  35.505 -42.134  39.154 -38.485  43.592 -42.824  35.505 -50.911  27.418 -42.824  31.856 -38.485 Z M55.526 -38.485  59.175 -42.134  62.824 -38.485  67.262 -42.824  59.175 -50.911  51.088 -42.824  55.526 -38.485 Z M47.34 5.995 Q38.858 5.995 31.363 2.79 Q23.867 -0.415 18.196 -6.086 Q12.525 -11.757 9.32 -19.253 Q6.115 -26.748 6.115 -35.23 Q6.115 -43.81 9.32 -51.257 Q12.525 -58.703 18.196 -64.374 Q23.867 -70.045 31.363 -73.25 Q38.858 -76.455 47.34 -76.455 Q55.92 -76.455 63.367 -73.25 Q70.813 -70.045 76.484 -64.374 Q82.155 -58.703 85.36 -51.257 Q88.565 -43.81 88.565 -35.23 Q88.565 -26.748 85.36 -19.253 Q82.155 -11.757 76.484 -6.086 Q70.813 -0.415 63.367 2.79 Q55.92 5.995 47.34 5.995 Z"/></g><g id="Semibold-S" transform="matrix(1 0 0 1 1998.1 696)"><path d="M47.34 -16.294 Q53.678 -16.294 58.939 -19.349 Q64.201 -22.405 66.357 -28.305 H28.323 Q30.479 -22.405 35.741 -19.349 Q41.002 -16.294 47.34 -16.294 Z M31.984 -38.999  35.505 -42.52  39.026 -38.999  42.992 -42.91  35.505 -50.397  28.018 -42.91  31.984 -38.999 Z M55.654 -38.999  59.175 -42.52  62.696 -38.999  66.662 -42.91  59.175 -50.397  51.688 -42.91  55.654 -38.999 Z M47.34 4.537 Q39.158 4.537 31.92 1.439 Q24.682 -1.659 19.225 -7.115 Q13.769 -12.572 10.671 -19.81 Q7.573 -27.048 7.573 -35.23 Q7.573 -43.51 10.671 -50.699 Q13.769 -57.888 19.225 -63.345 Q24.682 -68.801 31.92 -71.899 Q39.158 -74.997 47.34 -74.997 Q55.62 -74.997 62.809 -71.899 Q69.998 -68.801 75.455 -63.345 Q80.911 -57.888 84.009 -50.699 Q87.107 -43.51 87.107 -35.23 Q87.107 -27.048 84.009 -19.81 Q80.911 -12.572 75.455 -7.115 Q69.998 -1.659 62.809 1.439 Q55.62 4.537 47.34 4.537 Z"/></g><g id="Medium-S" transform="matrix(1 0 0 1 1701.85 696)"><path d="M47.34 -16.294 Q53.549 -16.294 58.762 -19.237 Q63.975 -22.179 66.197 -27.919 H28.483 Q30.705 -22.179 35.918 -19.237 Q41.131 -16.294 47.34 -16.294 Z M32.081 -39.385  35.505 -42.809  38.929 -39.385  42.542 -42.974  35.505 -50.011  28.468 -42.974  32.081 -39.385 Z M55.751 -39.385  59.175 -42.809  62.599 -39.385  66.212 -42.974  59.175 -50.011  52.138 -42.974  55.751 -39.385 Z M47.34 3.444 Q39.384 3.444 32.338 0.426 Q25.293 -2.592 19.997 -7.887 Q14.702 -13.183 11.684 -20.228 Q8.666 -27.274 8.666 -35.23 Q8.666 -43.285 11.684 -50.281 Q14.702 -57.277 19.997 -62.573 Q25.293 -67.868 32.338 -70.886 Q39.384 -73.904 47.34 -73.904 Q55.395 -73.904 62.391 -70.886 Q69.387 -67.868 74.683 -62.573 Q79.978 -57.277 82.996 -50.281 Q86.014 -43.285 86.014 -35.23 Q86.014 -27.274 82.996 -20.228 Q79.978 -13.183 74.683 -7.887 Q69.387 -2.592 62.391 0.426 Q55.395 3.444 47.34 3.444 Z"/></g><g id="Regular-S" transform="matrix(1 0 0 1 1405.73 696)"><path d="M47.34 -16.294 Q53.455 -16.294 58.633 -19.154 Q63.81 -22.014 66.079 -27.636 H28.601 Q30.87 -22.014 36.047 -19.154 Q41.225 -16.294 47.34 -16.294 Z M32.152 -39.668  35.505 -43.021  38.858 -39.668  42.212 -43.021  35.505 -49.728  28.799 -43.021  32.152 -39.668 Z M55.822 -39.668  59.175 -43.021  62.528 -39.668  65.882 -43.021  59.175 -49.728  52.468 -43.021  55.822 -39.668 Z M47.34 2.642 Q39.549 2.642 32.645 -0.317 Q25.741 -3.275 20.563 -8.453 Q15.386 -13.631 12.427 -20.535 Q9.468 -27.439 9.468 -35.23 Q9.468 -43.12 12.427 -49.974 Q15.386 -56.829 20.563 -62.007 Q25.741 -67.184 32.645 -70.143 Q39.549 -73.102 47.34 -73.102 Q55.23 -73.102 62.084 -70.143 Q68.939 -67.184 74.117 -62.007 Q79.294 -56.829 82.253 -49.974 Q85.212 -43.12 85.212 -35.23 Q85.212 -27.439 82.253 -20.535 Q79.294 -13.631 74.117 -8.453 Q68.939 -3.275 62.084 -0.317 Q55.23 2.642 47.34 2.642 Z"/></g><g id="Light-S" transform="matrix(1 0 0 1 1109.75 696)"><path d="M47.34 -17.508 Q52.924 -17.508 57.741 -20.027 Q62.559 -22.545 64.789 -27.636 H29.891 Q32.121 -22.545 36.939 -20.027 Q41.756 -17.508 47.34 -17.508 Z M32.152 -40.503  35.505 -43.932  38.934 -40.503  41.453 -43.021  35.505 -48.893  29.633 -43.021  32.152 -40.503 Z M55.746 -40.503  59.175 -43.932  62.528 -40.503  65.047 -43.021  59.175 -48.893  53.227 -43.021  55.746 -40.503 Z M47.347 0.669 Q39.966 0.669 33.42 -2.134 Q26.875 -4.936 21.962 -9.847 Q17.049 -14.758 14.245 -21.3 Q11.441 -27.843 11.441 -35.223 Q11.441 -42.703 14.244 -49.199 Q17.046 -55.695 21.957 -60.608 Q26.868 -65.521 33.41 -68.325 Q39.953 -71.129 47.333 -71.129 Q54.813 -71.129 61.309 -68.326 Q67.805 -65.524 72.718 -60.613 Q77.631 -55.702 80.435 -49.209 Q83.239 -42.716 83.239 -35.237 Q83.239 -27.856 80.436 -21.31 Q77.634 -14.765 72.723 -9.852 Q67.812 -4.939 61.319 -2.135 Q54.826 0.669 47.347 0.669 Z"/></g><g id="Thin-S" transform="matrix(1 0 0 1 814.015 696)"><path d="M47.34 -18.722 Q52.393 -18.722 56.85 -20.899 Q61.307 -23.076 63.499 -27.636 H31.181 Q33.373 -23.076 37.83 -20.899 Q42.287 -18.722 47.34 -18.722 Z M32.152 -41.337  35.505 -44.842  39.01 -41.337  40.694 -43.021  35.505 -48.059  30.468 -43.021  32.152 -41.337 Z M55.67 -41.337  59.175 -44.842  62.528 -41.337  64.212 -43.021  59.175 -48.059  53.986 -43.021  55.67 -41.337 Z M47.353 -1.303 Q40.383 -1.303 34.196 -3.95 Q28.008 -6.597 23.36 -11.241 Q18.712 -15.884 16.063 -22.065 Q13.413 -28.247 13.413 -35.217 Q13.413 -42.286 16.06 -48.424 Q18.707 -54.562 23.351 -59.21 Q27.994 -63.858 34.175 -66.507 Q40.357 -69.157 47.327 -69.157 Q54.396 -69.157 60.534 -66.51 Q66.672 -63.863 71.32 -59.219 Q75.968 -54.576 78.617 -48.444 Q81.267 -42.312 81.267 -35.243 Q81.267 -28.273 78.62 -22.086 Q75.973 -15.898 71.329 -11.25 Q66.686 -6.602 60.554 -3.953 Q54.422 -1.303 47.353 -1.303 Z"/></g><g id="Ultralight-S" transform="matrix(1 0 0 1 517.792 696)"><path d="M47.34 -19.45 Q52.074 -19.45 56.315 -21.422 Q60.556 -23.395 62.726 -27.636 H31.955 Q34.124 -23.395 38.365 -21.422 Q42.606 -19.45 47.34 -19.45 Z M32.152 -41.838  35.505 -45.388  39.056 -41.838  40.239 -43.021  35.505 -47.558  30.968 -43.021  32.152 -41.838 Z M55.625 -41.838  59.175 -45.388  62.528 -41.838  63.712 -43.021  59.175 -47.558  54.441 -43.021  55.625 -41.838 Z M47.357 -2.486 Q40.634 -2.486 34.661 -5.04 Q28.688 -7.594 24.199 -12.077 Q19.71 -16.56 17.153 -22.525 Q14.597 -28.489 14.597 -35.213 Q14.597 -42.035 17.15 -47.958 Q19.704 -53.882 24.187 -58.371 Q28.67 -62.86 34.635 -65.417 Q40.599 -67.973 47.323 -67.973 Q54.145 -67.973 60.068 -65.42 Q65.992 -62.866 70.481 -58.383 Q74.97 -53.9 77.527 -47.985 Q80.084 -42.069 80.084 -35.247 Q80.084 -28.523 77.53 -22.551 Q74.976 -16.578 70.493 -12.089 Q66.01 -7.6 60.095 -5.043 Q54.179 -2.486 47.357 -2.486 Z"/></g></g></svg>