<?xml version="1.0" encoding="UTF-8"?>
<svg xmlns="http://www.w3.org/2000/svg" xmlns:xlink="http://www.w3.org/1999/xlink" width="30px" height="29px" viewBox="0 0 29 29" version="1.1">
<g id="surface1">
<path style=" stroke:none;fill-rule:nonzero;fill:rgb(10.980392%,36.862745%,96.078431%);fill-opacity:1;" d="M 28.878906 14.882812 C 28.414062 12.074219 27.292969 7.820312 26.816406 6.082031 C 26.015625 3.195312 25.515625 -0.746094 20.945312 0.265625 L 14.480469 2.46875 C 12.601562 3.160156 10.898438 4.226562 9.46875 5.574219 L 12.355469 6.867188 C 13.757812 7.492188 14.40625 9.191406 13.808594 10.648438 L 11.988281 15.046875 C 11.386719 16.507812 9.75 17.183594 8.355469 16.554688 L 4.980469 15.046875 C 4.980469 15.128906 4.960938 15.203125 4.960938 15.285156 L 4.652344 20.984375 L 4.628906 24.449219 C 4.628906 24.449219 4.628906 24.449219 4.628906 24.457031 C 4.652344 25.945312 5.71875 27.199219 7.140625 27.40625 L 14.878906 28.582031 C 17.871094 28.988281 19.878906 29.417969 20.726562 26.945312 L 21.023438 25.9375 C 21.078125 25.75 21.296875 24.90625 21.316406 24.707031 C 21.707031 20.429688 21.871094 20.144531 26.007812 18.652344 L 27.035156 18.25 C 28.347656 17.730469 29.132812 16.324219 28.894531 14.882812 Z M 28.878906 14.882812 "/>
<path style=" stroke:none;fill-rule:nonzero;fill:rgb(10.980392%,36.862745%,96.078431%);fill-opacity:1;" d="M 9.46875 5.574219 L 5.742188 3.90625 C 4.332031 3.285156 2.710938 3.957031 2.105469 5.421875 L 0.289062 9.820312 C -0.3125 11.277344 0.332031 12.972656 1.742188 13.597656 L 4.976562 15.046875 C 5.203125 11.300781 6.898438 7.988281 9.472656 5.574219 Z M 9.46875 5.574219 "/>
</g>
</svg>
